<svg xmlns="http://www.w3.org/2000/svg" viewBox="0 0 222.768 222.768" fill="#fff"><path d="M159.206 64.987l-8.138 8.138a8.88 8.88 0 0 1-.109 12.507l-5.587 5.587a8.87 8.87 0 0 1-6.319 2.604 8.87 8.87 0 0 1-6.321-2.606l-5.58-5.579c-3.444-3.441-3.479-9.017-.114-12.512l-8.139-8.138a10.66 10.66 0 0 1-3.143-7.59 10.66 10.66 0 0 1 3.144-7.591l12.145-12.146a9.48 9.48 0 0 1-.73-3.654 9.56 9.56 0 0 1 9.546-9.546 9.56 9.56 0 0 1 9.546 9.546c0 1.724-.466 3.338-1.269 4.736l11.066 11.065c2.027 2.027 3.144 4.723 3.144 7.59s-1.114 5.562-3.142 7.589zM92.271 38.212c.627-1.271.989-2.695.989-4.206a9.56 9.56 0 0 0-9.546-9.546 9.56 9.56 0 0 0-9.546 9.546 9.47 9.47 0 0 0 .989 4.205L63.563 49.806a10.66 10.66 0 0 0-3.146 7.592 10.66 10.66 0 0 0 3.144 7.59l8.138 8.138c-3.365 3.495-3.33 9.072.114 12.513l5.58 5.579c1.679 1.681 3.924 2.606 6.321 2.606a8.87 8.87 0 0 0 6.319-2.604l5.581-5.581a8.88 8.88 0 0 0 2.618-6.319c0-2.33-.891-4.52-2.503-6.192l8.138-8.138c2.027-2.026 3.144-4.723 3.144-7.591a10.66 10.66 0 0 0-3.143-7.59L92.271 38.212zm119.863 45.783c0-32.461-15.788-63.123-42.234-82.022C168.093.682 165.968 0 163.754 0c-2.803 0-5.438 1.091-7.423 3.073a10.48 10.48 0 0 0-3.039 8.292 10.48 10.48 0 0 0 4.364 7.675c20.772 14.825 33.287 38.881 33.476 64.349.175 23.486-10.18 44.944-26.616 59.773-.803-.364-1.656-.625-2.549-.76-2.539-.39-5.128.25-7.198 1.774l-9.636 7.097a9.62 9.62 0 0 0-3.835 6.349c-.012.077-.014.153-.023.229a78.18 78.18 0 0 1-16.467 4.733l-4.264-4.264c-2.447-2.448-5.7-3.796-9.162-3.796s-6.715 1.349-9.159 3.794l-4.283 4.283c-5.66-.956-11.164-2.503-16.435-4.631-.013-.117-.018-.233-.036-.35-.387-2.558-1.748-4.812-3.83-6.345l-9.642-7.101c-1.675-1.233-3.657-1.885-5.733-1.885a9.71 9.71 0 0 0-1.453.109c-.983.148-1.919.444-2.789.866a81.19 81.19 0 0 1-3.033-2.875c-15.062-15.063-23.357-35.091-23.357-56.395 0-25.708 12.513-49.988 33.472-64.95 2.521-1.8 4.113-4.601 4.369-7.685a10.48 10.48 0 0 0-3.04-8.289A10.43 10.43 0 0 0 59.011 0c-2.211 0-4.333.681-6.137 1.969-26.367 18.839-42.158 49.405-42.24 81.765-.077 30.377 13.519 57.806 34.97 76.392-.529 3.446.82 7.067 3.818 9.277l9.638 7.098c1.658 1.222 3.635 1.867 5.718 1.867h0c2.255 0 4.418-.789 6.127-2.168 3.17 1.404 6.424 2.649 9.753 3.724-2.202 2.395-3.42 5.474-3.42 8.75 0 3.462 1.347 6.715 3.792 9.159l21.191 21.19c2.378 2.38 5.717 3.745 9.162 3.745s6.784-1.365 9.16-3.742l21.191-21.191c2.448-2.446 3.797-5.699 3.797-9.161a12.85 12.85 0 0 0-3.374-8.697c3.332-1.064 6.604-2.298 9.802-3.706a9.77 9.77 0 0 0 6.031 2.097c2.083 0 4.06-.646 5.716-1.866l9.643-7.101c2.949-2.173 4.306-5.714 3.845-9.11 1.862-1.61 3.674-3.294 5.432-5.053 19.028-19.03 29.508-44.331 29.508-71.243z"/></svg>
