<svg xmlns="http://www.w3.org/2000/svg" viewBox="0 0 512.001 512.001" fill="#fff"><path d="M47.557 266.837c-8.92-16.947-16.25-37.444-10.906-51.562 3.936-10.399 15.91-17.467 35.587-21.007 38.154-6.862 80.698-3.379 118.233-.308 49.438 4.049 88.49 7.245 107.681-14.106 9.084-10.106 12.063-23.776 8.856-40.639-1.699-8.931.54-14.173 7.726-18.094 11.745-6.408 33.016-6.97 55.51-1.469 26.255 6.421 51.089 19.814 69.928 37.716 23.476 22.31 45.371 58.742 33.896 113.34 12.95 13.008 20.525 26.552 24.822 38.901 12.387-33.219 16.023-64.933 10.793-94.544-5.524-31.272-21.248-59.97-45.473-82.991-23.179-22.027-53.605-38.476-85.677-46.318-31.524-7.71-60.869-5.985-80.512 4.733-20.615 11.247-29.834 31.384-25.294 55.249 1.003 5.272.806 9.304-.526 10.786-.964 1.072-5.47 4.628-22.979 5.365-15.076.629-34.91-.99-55.906-2.708-39.665-3.249-84.621-6.929-127.26.743-32.622 5.868-53.506 20.357-62.069 43.063-12.241 32.46 6.311 71.127 20.341 93.666 5.133-9.842 12.569-20.032 23.229-29.816zm441.171 74.75l-7.846-2.599c-.405-16.992-7.605-47.34-48.625-70.941-38.301-22.036-96.652-33.215-173.431-33.224-76.822 0-135.146 11.165-173.438 33.183-42.335 24.344-48.659 55.883-48.661 72.516a91.16 91.16 0 0 0 .352 7.735H34.43c-9.637 0-17.448 7.811-17.45 17.445s7.81 17.449 17.445 17.45l13 .001c15.257 28.43 45.267 47.814 79.728 47.818 20.016-.001 36.647-11.511 54.256-23.695 20.65-14.29 44.048-30.481 77.388-30.481 33.359.003 56.757 16.204 77.402 30.497 17.61 12.192 34.24 23.707 54.251 23.709h.012c24.153 0 46.861-9.404 63.941-26.481 8.937-8.936 15.751-19.422 20.239-30.839l3.111 1.031a17.4 17.4 0 0 0 5.489.89c7.318 0 14.133-4.64 16.56-11.966 3.033-9.147-1.926-19.019-11.074-22.049z"/></svg>
