<svg xmlns="http://www.w3.org/2000/svg" viewBox="0 0 511.998 511.998" fill="#fff"><path d="M511.846 174.185c-.017-.222.068-.435.034-.657l-8.533-51.2c-.418-2.492-1.92-4.685-4.113-5.965-2.176-1.28-4.821-1.519-7.202-.657-42.368 15.317-195.644 33.63-236.032 33.63-40.397 0-193.673-18.313-236.041-33.63-2.364-.853-5.009-.614-7.202.657-2.193 1.28-3.695 3.473-4.113 5.965l-8.533 51.2c-.034.222.051.435.034.657-.026.256-.145.486-.145.75 0 .444.188.828.247 1.254.077.512.137.99.299 1.476.239.691.606 1.297 1.007 1.894.179.282.247.631.461.888.077.085.196.119.273.205.563.614 1.246 1.067 1.963 1.493.29.171.521.418.828.555 1.058.478 2.219.768 3.456.768 18.56 0 118.161 30.43 169.574 94.618 26.522 33.118 35.576 69.564 26.897 108.314-.009.043 0 .077-.009.12-.179.862-.188 1.732-.102 2.603a8.8 8.8 0 0 0 .137.811c.137.674.358 1.323.657 1.963.094.196.154.401.256.589.043.068.051.137.094.205.427.708.964 1.314 1.57 1.86.154.145.333.247.503.375.58.461 1.212.836 1.894 1.126.145.06.239.171.384.23.102.034.213.017.307.051.845.273 1.724.469 2.637.469h85.333c.913 0 1.783-.196 2.628-.469.102-.034.205-.017.307-.051.136-.06.239-.171.375-.222a8.49 8.49 0 0 0 1.929-1.143c.162-.128.333-.222.478-.358.606-.546 1.152-1.161 1.587-1.877.034-.068.051-.145.085-.213.102-.162.154-.35.23-.521a8.12 8.12 0 0 0 .683-2.039c.051-.256.102-.503.128-.768.085-.888.085-1.775-.102-2.654-.009-.026 0-.051 0-.085-8.678-38.75.367-75.196 26.888-108.314 51.413-64.188 151.014-94.618 169.583-94.618 1.237 0 2.389-.29 3.456-.768.307-.137.529-.384.819-.555.717-.427 1.408-.879 1.963-1.493.077-.085.196-.119.273-.205.222-.256.282-.606.469-.888.401-.597.759-1.203.998-1.894.162-.486.222-.964.299-1.476.068-.427.256-.811.256-1.254.002-.266-.126-.496-.152-.752zM221.645 326.641l-.026.29c-4.992-20.745-15.07-40.627-30.191-59.511-29.116-36.352-71.287-62.31-108.305-78.797l7.108 1.152 4.301.734c4.437.828 8.755 1.707 12.885 2.662l.23.051a288.97 288.97 0 0 1 11.716 2.995l3.669 1.101 7.441 2.304 3.977 1.382 6.357 2.347 3.823 1.545a166.07 166.07 0 0 1 5.76 2.5l3.49 1.613c1.894.913 3.712 1.852 5.504 2.799l2.927 1.545c2.074 1.161 4.062 2.347 5.999 3.541.546.341 1.143.666 1.673 1.007 2.449 1.562 4.779 3.157 7.006 4.779.529.393 1.015.794 1.536 1.186 1.647 1.246 3.26 2.492 4.787 3.763.717.597 1.382 1.212 2.074 1.809a114.18 114.18 0 0 1 3.635 3.302c.7.666 1.365 1.34 2.039 2.005a123.14 123.14 0 0 1 3.115 3.251l1.843 2.065c.973 1.109 1.894 2.227 2.79 3.354l1.579 1.997c.939 1.237 1.809 2.475 2.671 3.721l1.152 1.655c2.381 3.601 4.446 7.228 6.229 10.837.282.58.538 1.161.811 1.741.572 1.22 1.135 2.449 1.647 3.669.29.683.555 1.365.828 2.048l1.271 3.336.717 2.091a103.62 103.62 0 0 1 1.033 3.26l.589 2.022.862 3.328.435 1.792c.299 1.297.555 2.577.794 3.849l.23 1.126c.299 1.638.555 3.243.776 4.821.06.401.094.794.154 1.186l.41 3.456.162 1.664.239 2.79.111 1.69.137 2.509.068 1.638.068 2.381.034 1.408.034 2.415.009 1.101.009 3.055c0 2.22-.086 4.438-.222 6.64zm98.918-59.221c-15.121 18.884-25.199 38.775-30.191 59.511-.009-.111-.026-.222-.026-.324-.137-2.185-.213-4.395-.213-6.605v-3.123c.008-.282.008-.597.008-.887l.034-2.569.034-1.382.068-2.432.068-1.57.145-2.56.111-1.664.239-2.842.154-1.604c.119-1.143.264-2.313.418-3.49l.145-1.169c.222-1.579.486-3.191.785-4.83.06-.35.137-.708.205-1.05.247-1.297.512-2.594.811-3.917l.435-1.775.87-3.362c.179-.657.384-1.323.58-1.988.324-1.092.666-2.185 1.033-3.285l.725-2.082c.393-1.109.828-2.227 1.271-3.354l.811-2.022c.521-1.229 1.084-2.458 1.664-3.686l.811-1.732c1.775-3.61 3.84-7.236 6.221-10.837.367-.555.768-1.101 1.152-1.655.862-1.246 1.741-2.492 2.679-3.729.503-.657 1.041-1.323 1.57-1.98.896-1.126 1.818-2.244 2.79-3.362.597-.691 1.22-1.374 1.843-2.057 1.007-1.092 2.048-2.185 3.123-3.268l2.031-1.988c1.161-1.118 2.389-2.219 3.644-3.311l2.065-1.809c1.536-1.271 3.157-2.526 4.804-3.78.521-.384.99-.785 1.519-1.169a137.92 137.92 0 0 1 7.006-4.779c.538-.341 1.126-.666 1.664-.998 1.946-1.203 3.934-2.389 6.016-3.55.939-.521 1.937-1.024 2.91-1.536 1.792-.947 3.618-1.894 5.521-2.807l3.482-1.613c1.869-.853 3.789-1.69 5.769-2.509l3.814-1.536c2.057-.802 4.19-1.579 6.357-2.347l3.977-1.382c2.406-.802 4.924-1.562 7.458-2.313l3.652-1.092a287.74 287.74 0 0 1 11.716-2.995l.23-.051c4.139-.956 8.448-1.843 12.885-2.662 1.391-.265 2.867-.486 4.292-.734l7.117-1.152c-37.014 16.483-79.186 42.442-108.302 78.794z"/></svg>
