<svg xmlns="http://www.w3.org/2000/svg" viewBox="0 0 326.577 326.577" fill="#ccc"><path d="M275.201 55.683c-30.025-9.884-69.769-15.327-111.912-15.327S81.402 45.799 51.376 55.683C8.913 69.662 0 87.578 0 100.146v59.709c0 12.568 8.913 30.484 51.376 44.462 22.988 7.567 51.681 12.52 82.778 14.43 4.218 7.774 11.461 13.673 20.135 16.126v10.688h-12.238l.003-.317c0-9.22-7.501-16.721-16.721-16.721s-16.721 7.501-16.721 16.721c0 4.77 2.007 9.079 5.222 12.128-3.215 3.05-5.222 7.359-5.222 12.129 0 9.22 7.501 16.721 16.721 16.721s16.721-7.501 16.721-16.721l-.003-.318h42.476l-.003.318c0 9.22 7.501 16.721 16.722 16.721s16.72-7.501 16.72-16.721c0-4.77-2.008-9.08-5.222-12.129 3.214-3.049 5.222-7.358 5.222-12.128 0-9.22-7.5-16.721-16.72-16.721s-16.722 7.501-16.722 16.721l.003.317h-12.238v-10.688c8.674-2.453 15.916-8.352 20.135-16.126 31.096-1.91 59.79-6.862 82.777-14.43 42.463-13.977 51.376-31.893 51.376-44.462v-59.71c0-12.568-8.913-30.484-51.376-44.462zM64.623 129.834c23.256-8.26 56.936-14.338 98.666-14.338s75.41 6.078 98.665 14.338c-27.257 7.82-61.892 12.102-98.665 12.102s-71.41-4.282-98.666-12.102zm243.954-29.689c0 5.408-6.088 13.102-22.017 20.677-4.082-2.117-8.704-4.19-13.917-6.198v-40.8c26.415 9.214 35.934 19.557 35.934 26.321zM57.004 72.781c28.257-9.302 66.003-14.425 106.284-14.425 33.559 0 65.336 3.567 91.354 10.133v40.232c-26.054-7.268-57.889-11.226-91.354-11.226-39.399 0-76.57 5.466-104.666 15.391-7.187 2.539-13.335 5.203-18.606 7.937C24.088 113.248 18 105.554 18 100.146c0-7.021 10.247-17.898 39.004-27.365zm106.285 145.345c-8.338 0-15.123-6.784-15.123-15.124s6.784-15.123 15.123-15.123 15.123 6.784 15.123 15.123-6.785 15.124-15.123 15.124z"/></svg>
