<svg xmlns="http://www.w3.org/2000/svg" viewBox="0 0 511.999 511.999" fill="#fff"><path d="M213.403 95.053c16.529 3.422 31.266 12.817 42.581 26.709 11.307-13.892 26.052-23.287 42.581-26.709 4.599-.956 9.242-1.382 13.833-1.374l6.221-58.283c-9.617-.99-19.422-1.263-28.484-1.263a8.55 8.55 0 0 1-8.533-8.533V8.533c0-4.719-3.823-8.533-8.533-8.533h-34.133c-4.71 0-8.533 3.814-8.533 8.533V25.6a8.55 8.55 0 0 1-8.533 8.533c-8.789 0-18.27.273-27.605 1.186l5.453 58.351c4.538 0 9.129.436 13.685 1.383zm-50.88 31.408c.375 7.936 1.024 15.292 1.894 22.05 15.386 9.062 31.266 18.193 34.679 19.593 10.59 4.326 22.767 3.046 32.589-3.456 9.19-6.093 14.797-15.462 15.642-25.984-9.293-14.293-22.485-23.808-37.385-26.897-5.743-1.195-11.494-1.254-16.939-.503-.077.009-.137.051-.205.06-.273.026-.546.034-.802.034-.026 0-.051-.017-.077-.017-6.101.99-11.742 3.123-16.333 6.4l-13.063 8.72zm139.509-14.695c-14.899 3.089-28.1 12.604-37.385 26.897.836 10.522 6.443 19.891 15.642 25.984 9.822 6.511 22.007 7.791 32.589 3.456 3.405-1.399 19.311-10.539 34.714-19.618.862-6.741 1.51-14.089 1.886-21.999l-12.877-8.602c-4.813-3.422-10.684-5.581-16.981-6.554-.171-.009-.341-.009-.521-.026-.017 0-.034-.017-.051-.017-5.479-.775-11.256-.716-17.016.479zm52.893-2.161c9.233-9.463 20.574-23.04 20.574-32.811 0-23.108-17.826-33.826-40.004-38.724l-6.178 57.873c6.204 1.715 11.989 4.343 16.973 7.893l8.635 5.769zm-81.858 121.432c0-11.802 2.782-23.415 8.047-33.587 1.86-3.61 3.652-7.526 5.402-11.614-5.47-1.459-10.778-3.729-15.659-6.963-6.05-4.011-11.025-9.165-14.874-15.002-3.84 5.837-8.815 10.991-14.865 15.002-4.881 3.226-10.172 5.495-15.633 6.955 1.749 4.087 3.541 8.013 5.41 11.614 5.265 10.18 8.038 21.794 8.038 33.596 0 11.238-2.603 22.451-7.535 32.444-32.418 65.715-30.66 161.852-18.202 229.914l3.763 15.036c12.698 2.082 26.18 3.567 39.04 3.567 12.39 0 25.344-1.382 37.632-3.345l5.282-15.846c12.356-68.028 14.02-163.797-18.313-229.325-4.922-9.987-7.533-21.199-7.533-32.446zm61.423 23.643h0c-6.589-7.74-10.224-17.084-10.224-26.65 0-6.827 1.818-13.559 5.239-19.465 4.164-7.185 9.865-19.465 14.174-38.016-11.298 6.537-21.111 12.023-24.328 13.346-4.847 1.98-9.924 2.953-15.027 3.388-2.552 6.4-5.214 12.518-8.055 17.997-4.011 7.765-6.135 16.674-6.135 25.754 0 8.636 1.997 17.237 5.777 24.892 34.261 69.453 32.631 169.796 19.686 240.538a9.06 9.06 0 0 1-.299 1.169l-2.483 7.441c21.99-4.719 38.554-10.18 39.757-10.581 2.765-.922 4.873-3.2 5.572-6.033 19.174-77.107 34.739-165.112-23.654-233.771v-.009zm-118.401 1.25c3.78-7.654 5.777-16.256 5.777-24.892 0-9.079-2.116-17.988-6.135-25.762-2.799-5.402-5.436-11.452-7.962-17.775-5.154-.427-10.266-1.604-15.155-3.61-3.217-1.323-13.005-6.793-24.286-13.329 4.309 18.543 10.01 30.814 14.165 37.99 3.43 5.922 5.24 12.655 5.24 19.823 0 9.224-3.627 18.56-10.223 26.308-58.385 68.659-42.829 156.672-23.654 233.771.708 2.833 2.807 5.12 5.581 6.033 1.186.401 17.425 5.751 39.066 10.436l-1.98-7.927c-13.066-71.278-14.687-171.613 19.566-241.066zm-50.191-152.241c4.915-3.507 10.684-6.11 16.887-7.799l-5.427-58.018C154.787 42.676 136.5 53.386 136.5 76.801c0 9.754 11.332 23.33 20.565 32.785l8.833-5.897z"/></svg>
