<svg xmlns="http://www.w3.org/2000/svg" fill="#fff" viewBox="0 0 201.252 201.252"><path d="M157.495 196.185c-4.307 3.41-8.618 5.067-13.181 5.067-6.527 0-12.583-3.382-19.596-7.297-6.219-3.473-13.268-7.408-22.348-10.064-41.375-12.103-62.877-62.336-68.466-87.208-3.655-16.265-5.633-53.191 13.04-76.526C57.647 6.782 73.279 0 93.405 0c33.895 0 52.589 18.818 62.304 34.605 10.381 16.868 12.824 33.538 12.924 34.239a4.03 4.03 0 0 1 .039.559v14.061c0 4.497-1.486 8.679-4.188 11.942-5.06-15.845-18.168-51.848-36.071-63.784-26.285-17.522-51.649-14.575-69.593 8.09-19.226 24.286-11.503 60.143-3.909 77.501 4.474 10.226 13.125 20.84 19.594 27.943 3.44 3.778 7.363 7.154 11.661 10.035 10.227 6.854 29.576 15.09 35.006 16.732.386.117.775.172 1.159.172 1.717 0 3.305-1.115 3.827-2.843a4 4 0 0 0-2.672-4.986c-4.408-1.333-23.323-9.323-32.867-15.72-3.762-2.521-7.194-5.474-10.2-8.775-4.965-5.452-13.929-16.048-18.18-25.764-6.878-15.723-14.019-48.018 2.853-69.329 20.583-26 45.728-15.169 58.883-6.399 12.996 8.664 23.702 33.527 29.738 50.353-12.21-11.204-31.466-24.639-48.37-17.86-11.996 4.81-19.759 14.914-21.299 27.72-1.584 13.176 4.005 26.418 14.24 33.735 18.631 13.32 47.611 16.988 48.835 17.138 2.194.271 4.186-1.292 4.455-3.483a4 4 0 0 0-3.483-4.457c-.279-.035-28.2-3.584-45.155-15.705-7.892-5.642-12.19-15.955-10.95-26.272 1.18-9.816 7.133-17.561 16.334-21.25 15.803-6.336 37.928 13.198 48.349 24.718-5.331 4.811-9.165 8.533-10.443 15.509-1.367 7.468 4.194 11.784 11.607 16.649l1.327.876c5.979 4.001 9.51 10.643 9.51 17.813v10.303c2.14 6.844 2.35 21.411-11.175 32.119z"/></svg>