<svg xmlns="http://www.w3.org/2000/svg" fill="#fff" viewBox="0 -2.96 15.929 15.929"><path d="M15.197 3.239l-.416-.416A9.61 9.61 0 0 0 7.965 0a9.61 9.61 0 0 0-6.816 2.823l-.416.416a2.5 2.5 0 0 0 0 3.536l.416.416a9.61 9.61 0 0 0 6.816 2.823 9.61 9.61 0 0 0 6.816-2.823l.416-.416a2.5 2.5 0 0 0 0-3.536zM7.965 1.007a.5.5 0 1 1 0 1 2 2 0 0 0-2 2 .5.5 0 1 1-1 0 3 3 0 0 1 3-3zm6.525 5.061l-.416.416a8.58 8.58 0 0 1-6.109 2.53 8.58 8.58 0 0 1-6.109-2.53l-.416-.416c-.282-.281-.44-.663-.439-1.061s.157-.78.439-1.061l.416-.416c.834-.834 1.829-1.489 2.926-1.923-.528.689-.815 1.532-.817 2.4a4 4 0 1 0 8 0c-.002-.868-.289-1.711-.817-2.4 1.097.434 2.092 1.089 2.926 1.923l.416.416c.282.281.44.663.439 1.061s-.157.78-.439 1.061z"/></svg>
