<svg xmlns="http://www.w3.org/2000/svg" width="640px" height="640px" fill="#ccc" shape-rendering="geometricPrecision" image-rendering="optimizeQuality" fill-rule="evenodd"><path d="M301.5 75.5c80.074-2.62 155.741 14.213 227 50.5 22.214 12.603 43.214 26.936 63 43 6.637 5.711 8.804 12.877 6.5 21.5-3.699 13.604-12.533 18.437-26.5 14.5a403.91 403.91 0 0 1-34-17 2853.38 2853.38 0 0 1-114-38c-68.33-19.278-136.664-19.278-205 0-27.874 9.836-55.874 19.17-84 28l-31 15a138.44 138.44 0 0 1-34 18c-11.668 1.917-20.501-2.25-26.5-12.5-2.314-8.236-1.647-16.236 2-24 59.115-50.961 127.615-82.127 205.5-93.5 17.109-2.243 34.109-4.076 51-5.5z" opacity=".868"/><path d="M299.5 222.5c114.539-2.91 210.039 37.756 286.5 122 23.088 29.015 28.088 61.015 15 96a111.19 111.19 0 0 1-15 24C502.854 555.465 399.687 595.298 276.5 584 180.667 570.352 102.833 525.852 43 450.5c-10.989-19.288-14.656-39.955-11-62 3.685-17.427 11.351-32.76 23-46 65.826-71.784 147.326-111.784 244.5-120zm19 38c13.627 1.789 19.461 9.455 17.5 23-2.384 5.775-6.551 9.608-12.5 11.5-34.545.245-58.712 16.078-72.5 47.5-3.129 11.553-5.462 23.22-7 35-6.638 8.367-14.804 10.2-24.5 5.5-4.513-3.701-7.18-8.368-8-14 1.982-44.619 22.649-77.286 62-98 14.439-6.529 29.439-10.029 45-10.5zm-118 23c.739-.131 1.406.036 2 .5-22.33 30.144-31.497 63.977-27.5 101.5 8.805 54.785 38.305 93.952 88.5 117.5 56.171 20.777 107.171 12.11 153-26 49.589-49.012 61.089-105.845 34.5-170.5-3.712-8.265-8.545-15.765-14.5-22.5 31.895 12.449 60.895 29.783 87 52 11.804 10.803 23.304 21.97 34.5 33.5 16.288 22.822 16.621 45.822 1 69-89.029 96.113-197.529 128.946-325.5 98.5-61.878-18.563-113.711-52.396-155.5-101.5-12.943-21.233-12.61-42.233 1-63 34.151-38.627 74.651-68.294 121.5-89z" opacity=".266"/></svg>
