<svg xmlns="http://www.w3.org/2000/svg" viewBox="0 0 512 512" fill="#fff"><path d="M495.8 320.5L421.3 66.4c-7.7-12.9-23.3-27.3-42.4-25.2-28.6 3.2-40.1 39.2-43.9 51-3.5 10.8 2.5 22.4 13.4 25.8 10.9 3.5 22.5-2.5 25.9-13.3 3.7-11.5 7-17.5 9.1-20.6.4.5 51.6 174.9 51.6 174.9-13-5.3-27.1-8.3-42-8.3-48.1 0-89.1 30.8-104.2 73.5-11.2-5.6-22.9-8.2-34.8-7.7-11.6.4-22 3.6-30.7 7.8-15.1-42.8-56.2-73.6-104.3-73.6-15.1 0-29.4 3-42.5 8.5l49-168.7 1.2-1.5c2.1 3.1 5.4 9.1 9.1 20.6 3.5 10.8 15.1 16.8 25.9 13.3s16.8-15 13.4-25.8c-3.8-11.8-15.4-47.8-43.9-51-19.1-2.1-34.8 12.3-42.4 25.2-.9 1.5-74.6 254.4-74.6 254.4 0 .1-.1.3-.1.4-3.7 10.9-5.7 22.6-5.7 34.8C8.5 421.6 58.1 471 119 471c58 0 105.7-44.7 110.2-101.3 5.3-4.7 15-11.6 26.2-12 9-.3 18.2 3.8 27.5 12.2C287.5 426.4 335.1 471 393 471c60.9 0 110.5-49.4 110.5-110.1 0-14.3-2.7-27.9-7.7-40.4zM119 429.9c-38.2 0-69.3-31-69.3-69s31.1-69 69.3-69 69.3 31 69.3 69v.1c-.1 38-31.1 68.9-69.3 68.9zm274 0c-38.2 0-69.3-31-69.3-69s31.1-69 69.3-69 69.2 31 69.2 69c.1 38-31 69-69.2 69z"/></svg>
