<svg xmlns="http://www.w3.org/2000/svg" fill="#ccc" viewBox="0 0 512 512"><path d="M140.5 0h16v33h-16zm-99 99h33v16h-33zm181 0h33v16h-33zM78.829 25.682l23.335 23.335-11.313 11.314-23.335-23.335 11.313-11.314zM218.837 188.32l-23.335-23.335 11.314-11.314 23.335 23.335-11.314 11.314zm-140.017-.004l-11.314-11.314 23.335-23.335 11.314 11.314-23.335 23.335zm140.007-162.63L230.14 37l-23.334 23.334-11.313-11.314 23.334-23.334z"/><circle cx="183.908" cy="23.323" r="8.25"/><circle cx="114.644" cy="22.958" r="8.251"/><circle cx="65.408" cy="71.675" r="8.25"/><circle cx="65.041" cy="140.939" r="8.25"/><circle cx="113.759" cy="190.175" r="8.25"/><circle cx="183.023" cy="190.541" r="8.251"/><circle cx="232.26" cy="141.823" r="8.25"/><circle cx="232.625" cy="72.56" r="8.251"/><path d="M183.634 154.63l-6.594-38.938 28.331-27.576-39.074-5.68-17.474-35.427-17.48 35.427-39.093 5.68 28.292 27.576-6.844 38.938 26.802-14.178V597l16-300V140.452zm248.914 250.288c-9.281-4.843-15.688-11.31-15.542-21.778 0-29.971-24.296-54.267-54.267-54.267s-54.267 24.296-54.267 54.267c.297 10.065-4.255 17.641-12.911 22.785-20.12 11.958-35.002 41.52-35.002 51.807 0 29.971 24.296 54.267 54.267 54.267a54.54 54.54 0 0 0 10.796-1.074c24.648-4.978 49.649-4.931 74.303.015a54.53 54.53 0 0 0 10.726 1.061c29.971 0 54.267-24.296 54.267-54.267.002-16.856-12.961-42.688-32.37-52.816zm-8.405-176.879c-18.792-4.414-41.67 24.543-46.084 43.337s7.242 37.605 26.034 42.019 37.606-7.241 42.02-26.034-3.178-54.908-21.97-59.322zm65.75 82.867c-17.01-3.996-37.717 22.216-41.713 39.225s6.555 34.038 23.565 38.034 34.038-6.555 38.034-23.565-2.876-49.699-19.886-53.694zm-142.46-39.532c-4.414-18.792-27.291-47.751-46.084-43.336s-26.384 40.53-21.97 59.323 23.227 30.448 42.02 26.034 30.448-23.228 26.034-42.021zm-68.658 78.757c-3.996-17.01-24.703-43.221-41.713-39.225S213.18 347.59 217.175 364.6s21.024 27.56 38.034 23.565 27.561-21.024 23.566-38.034z"/></svg>
