<svg xmlns="http://www.w3.org/2000/svg" viewBox="0 0 297.163 297.163" fill="#fff"><path d="M163.468 217.401l-20.3-175.23a22.59 22.59 0 0 1 5.575-17.621c4.278-4.798 10.419-7.55 16.848-7.55h.007.007.007l9.068.008.76-8.694c.185-2.114-.526-4.209-1.959-5.774S170.024.083 167.902.081L80.599 0c-2.162-.002-4.221.92-5.66 2.533s-2.119 3.765-1.871 5.912l20.3 175.23c1.291 11.147-3.717 22.088-12.997 28.396l-36.789 25.006a15.73 15.73 0 0 0-4.463 21.399 14.33 14.33 0 0 0 12.121 6.687h49.593a7.58 7.58 0 0 0 7.107-4.951c3.224-8.735 11.937-27.295 31.401-41.444l4.16 22.031 13.437-9.133c4.679-3.18 7.181-8.646 6.53-14.265zm84.409-33.356l12.564-143.731c.185-2.114-.526-4.209-1.959-5.774a7.57 7.57 0 0 0-5.579-2.459L165.599 32a7.58 7.58 0 0 0-5.66 2.533c-1.439 1.613-2.119 3.765-1.871 5.912l20.3 175.23c1.291 11.147-3.717 22.088-12.997 28.396l-36.789 25.006a15.73 15.73 0 0 0-4.463 21.399 14.33 14.33 0 0 0 12.121 6.686h49.593a7.58 7.58 0 0 0 7.107-4.951c3.224-8.735 11.937-27.295 31.401-41.444l8.549 45.271a1.38 1.38 0 0 0 1.357 1.124h8.352a1.38 1.38 0 0 0 1.357-1.124l11.519-60.966c3.439-7.251 5.162-15.249 4.542-23.394-.785-10.377-5.199-20.009-12.14-27.633z"/></svg>
