<svg xmlns="http://www.w3.org/2000/svg" viewBox="0 0 283.721 283.721" fill="#ccc"><path d="M88.894 181.205c-11.458-11.9-11.097-30.904.804-42.363 11.977-11.53 30.943-11.055 42.361.805l.267.277-7.506-63.701c-1.933-16.407 9.842-31.328 26.244-33.26.954-.113 1.919-.168 2.879-.189l1.2-14.097c.701-8.232-5.405-15.474-13.637-16.175s-15.474 5.405-16.175 13.637l-4.189 49.209c-.26 3.05-4.822 2.862-4.822-.205V14.96c0-8.262-6.698-14.96-14.96-14.96S86.4 6.698 86.4 14.96v59.234c0 2.496-3.695 2.717-3.988.234L76.745 26.34c-.967-8.205-8.403-14.076-16.608-13.107S46.064 21.636 47.03 29.842l11.681 99.134c.335 2.843-3.149 4.489-5.133 2.428l-25.012-25.979c-5.73-5.951-15.2-6.132-21.152-.401a14.96 14.96 0 0 0-.401 21.152c66.649 69.226 68.525 69.21 70.225 70.289a9.28 9.28 0 0 0-7.554 9.115v24.234c0 5.126 4.156 9.282 9.282 9.282h65.664l-55.736-57.891zm175.465 3.858l16.255-79.621c1.503-7.365-3.248-14.554-10.614-16.058-7.36-1.495-14.554 3.25-16.058 10.614l-6.48 31.742c-.583 2.854-4.793 2.201-4.549-.656l4.919-57.782c.701-8.232-5.405-15.474-13.637-16.175s-15.474 5.406-16.175 13.637l-4.189 49.209c-.263 3.082-4.822 2.862-4.822-.205V59.586c0-8.262-6.698-14.96-14.96-14.96s-14.96 6.698-14.96 14.96v59.234c0 2.5-3.693 2.738-3.988.234l-5.666-48.088c-.967-8.203-8.402-14.076-16.609-13.107s-14.073 8.403-13.106 16.609l11.681 99.134c.337 2.861-3.162 4.475-5.133 2.428l-25.012-25.979c-5.729-5.95-15.199-6.133-21.152-.402a14.96 14.96 0 0 0-.401 21.152l70.224 70.289c-4.299.811-7.553 4.58-7.553 9.115v24.234c0 5.126 4.156 9.282 9.282 9.282h88.189c5.126 0 9.282-4.156 9.282-9.282v-24.234c0-4.561-3.292-8.345-7.628-9.127 1.793-2.467 2.863-5.493 2.863-8.776v-47.239zm-18.704 87.246c-5.707 0-10.333-4.626-10.333-10.333s4.626-10.333 10.333-10.333 10.333 4.626 10.333 10.333-4.627 10.333-10.333 10.333z"/></svg>
