<svg xmlns="http://www.w3.org/2000/svg" fill="#ccc" viewBox="0 0 363.089 363.089"><path d="M327.19 183.344c-2.646-7.374-10.819-12.418-18.141-23.407-3.491-5.237-4.134-10.784-3.608-15.916 4.875-.082 13.809-1.232 12.22-8.921-3.778 5.348-8.513 5.336-11.537 4.735.117-.561.251-1.121.379-1.658 2.762-7.117 11.339-32.094 8.694-46.288 15.951.537-7.976-38.19-21.918-49.791-16.535-12.839-64.832-22.443-132.167-12.804-11.128-14.34-46.218-51.251-87.905-11.233C22.54 66.673 31.742 147.023 49.654 204.352c17.913 57.322 16.769 108.106-4.601 123.848 4.869 15.717 67.563-45.564 67.563-45.564s-10.485 26.355-44.536 50.153c86.621-17.667 72.164-112.591 72.164-112.591S95.72 112.471 116.832 74.847c12.949-23.074 25.176-20.721 32.696-15.46l-15.425 42.078c-10.229 26.104 5.628 82.919 26.098 105.432 20.476 22.514-9.75 62.952-15.39 71.138-5.629 8.174-80.806 85.056-80.806 85.056l180.68-5.628-17.399-19.956c-6.866-7.871 12.95-49.92 17.399-67.027 4.601-24.825 39.912-3.596 57.323-8.711s5.57-28.375 5.57-28.375 5.109-2.592 5.681-8.536c.572-5.955-11.648-10.462-11.648-10.462s12.722 2.276 14.532-4.123c1.337-4.799-4.986-10.941-4.986-10.941l.047-3.912c-.012-.002 19.739-1.8 15.986-12.076z"/></svg>
