<svg xmlns="http://www.w3.org/2000/svg" fill="#fff" viewBox="0 0 366.129 366.129"><path d="M210.923 1.152C81.477-8.172 27.966 62.784 11.168 110.683-15.596 214.604 4.939 297.371 81.476 365.811c-8.706-20.529-3.871-47.573-4.974-56.004-1.098-8.408 11.204-13.066 11.204-13.066s-13.067-22.396-9.961-22.396c3.112 0 10.271 8.384 17.732 7.916-12.588-5.207-37.641-62.682-37.641-62.682l24.276 13.686L71.516 201s94.438 64.002 131.934 65.251c-13.686-12.448-4.355-23.646-4.355-23.646l11.829 13.066-8.093-28.633 29.87 37.963s4.345.479 3.106-13.066c-1.227-13.546 41.068 27.383 41.068 27.383s-11.969-26.461-13.066-78.331c-.292 23.401 60.23 60.908 59.133 83.923-1.086 23.016-13.697 62.858-13.697 62.858s74.675-150.6 52.908-229.613c-10.65-28.578-21.789-107.65-151.23-117.003z"/></svg>
