<svg xmlns="http://www.w3.org/2000/svg" fill="#ccc" viewBox="0 0 28.983 28.983"><path d="M13.358.418c-5.519-1.554-5.493 6.27-5.493 6.27l.804 4.448S5.347 23.703 6.445 27.453c.294.59.491-.307.491-.307l.313 1.432s.135.321 1.983-.08c2.679-1.822.288-16.041-.044-17.144S9.072 8.67 9.072 8.67s2.303-.455 2.719-1.165.395-1.53.496-3.201c.295 3.885 1.742 3.67 1.742 3.67s.602-.924 1.191-.549c.134.723.442.469.442.469s3.001-.24 3.162-.67c.165 3.188.188.752.174 2.438-1.151 4.528-1.271 16.103-.146 18.085.908 1.599 2.192 1.444 3.242.67.126-.094.028-.778.16-.898s.077.669.216.523c1.42-1.502-2.813-18.14-2.813-18.14s.587-12.298-6.299-9.484z"/></svg>
