<svg xmlns="http://www.w3.org/2000/svg" width="150" height="150"><path d="M103.769 146.026c.094-.23 2.08-8.381 4.414-18.115 4.739-19.77 5.155-22.657 4.253-29.588-.383-2.943-.648-3.906-1.075-3.906-.975 0-5.38 1.328-7.947 2.396-6.09 2.534-11.513 6.414-15.653 10.988-9.051 10-8.861 11.222-10.344 22.512-.7 5.331-.098 10.754 0 16.13h13.091c11.681 0 13.211-.032 13.262-.417zm-57.538 0c-.094-.23-2.08-8.381-4.414-18.115-4.739-19.77-5.155-22.657-4.253-29.588.383-2.943.648-3.906 1.075-3.906.975 0 5.38 1.328 7.947 2.396 6.09 2.534 11.513 6.414 15.653 10.988 9.051 10 8.861 11.222 10.344 22.512.7 5.331.098 10.754 0 16.13H59.492c-11.681 0-13.211-.032-13.262-.417zM43.828 6.984l-1.516 3.171c-3.716 7.768-4.125 14.933.475 22.991 7.866 13.782 8.529 27.85 2.66 41.376L40.44 86.057l-.606 1.329c-.958 2.1-.889 2.271 2.066 3.088 9.319 2.575 18.132 7.991 24.275 14.919 2.37 2.41 4.167 4.995 8.824 5.117 4.657-.122 6.454-2.706 8.824-5.117 6.143-6.928 14.956-12.344 24.275-14.919 2.955-.817 3.024-.988 2.066-3.088l-.606-1.329-5.006-11.535c-5.869-13.526-5.206-27.593 2.66-41.376 4.599-8.059 4.19-15.224.475-22.991l-1.516-3.171c-30.769 10.341-32.989 10.341-62.344 0z" fill-opacity=".26" fill="#ccc"/><g transform="matrix(1.107414 0 0 1.107414 -8.056071 -15.729944)"><g fill="none" stroke="#ccc" stroke-width="1.415" stroke-linejoin="round"><circle cy="47.766" cx="75" r="5.028"/><circle cy="71.299" cx="75" r="5.028"/><circle cy="100.977" cx="75" r="5.028"/></g><path d="M72.488 105.861h5.025v8.381c-2.013.539-2.877.576-5.025 0z" fill="#ccc"/><g><g stroke-linejoin="round" stroke-linecap="round" stroke-width="1.415" stroke="#ccc" fill="none"><use href="#B" transform="rotate(99.275)"/><use href="#C" transform="rotate(65.352)"/></g><g fill="#ccc"><use href="#D"/><use href="#E"/><use href="#F"/><use href="#G"/><use href="#H"/></g><g transform="matrix(-1 0 0 1 150.14407 0)"><g stroke-linejoin="round" stroke-linecap="round" stroke-width="1.415" stroke="#ccc" fill="none"><use href="#B" transform="rotate(99.275)"/><use href="#C" transform="rotate(65.352)"/></g><g fill="#ccc"><use href="#D"/><use href="#E"/><use href="#F"/><use href="#G"/><use href="#H"/></g></g></g></g><defs ><path id="B" d="M47.566-107.133c0 1.795-.958 3.454-2.512 4.351s-3.47.898-5.024 0-2.512-2.556-2.512-4.351"/><path id="C" d="M126.155-58.274c0 1.795-.958 3.454-2.512 4.352s-3.47.898-5.025 0-2.512-2.556-2.512-4.352"/><path id="D" d="M80.521 47.555l15.341 7.551-2.361 4.326-15.341-7.551z"/><path id="E" d="M80.493 71.359l15.462-7.611-2.361-4.326-15.462 7.611z"/><path id="F" d="M80.125 71.274l20.542 10.111-2.361 4.326L77.764 75.6z"/><path id="G" d="M80.07 100.682l20.667-10.173-2.361-4.326-20.667 10.173z"/><path id="H" d="M94.382 17.689L79.517 44.937l-4.223-2.541 13.679-24.702c1.704-.984 3.749-.964 5.408-.006z"/></defs></svg>
