<svg xmlns="http://www.w3.org/2000/svg" viewBox="0 0 512 512" fill="#ccc"><path d="M256 63.226c-83.652 0-151.466 67.814-151.466 151.466v40.47c96.353 19.451 206.579 19.451 302.932 0v-40.47c0-83.652-67.814-151.466-151.466-151.466zm0 247.811c-51.523 0-103.045-4.592-151.466-13.774v36.901c0 6.63 4.726 12.32 11.242 13.547a757.57 757.57 0 0 0 280.447 0c6.516-1.227 11.242-6.917 11.242-13.547v-36.901c-48.419 9.181-99.942 13.774-151.465 13.774zm253.232 35.667c-8.881-25.959-33.738-42.251-60.457-43.622v53.666c0 13.087-9.235 24.248-22.031 26.983-58.98 12.606-117.377 18.47-170.744 18.47s-111.764-5.865-170.742-18.471c-12.797-2.735-22.033-13.896-22.033-26.983v-53.666c-26.719 1.373-51.574 17.665-60.457 43.622-11.043 32.192 11.909 69.413 51.799 78.747C120.806 441 188.402 448.774 256 448.774a881.42 881.42 0 0 0 201.433-23.323c39.889-9.333 62.842-46.555 51.799-78.747z"/></svg>
