<svg xmlns="http://www.w3.org/2000/svg" viewBox="0 0 296.505 296.505" fill="#ccc"><path d="M138.327 83.253h4.512c4.418 0 7.667-3.582 7.667-8v-35c0-4.418-3.249-8-7.667-8h-84c-4.418 0-8.333 3.582-8.333 8v35c0 4.418 3.915 8 8.333 8h4.667v73.397l-48.433 37.227c-2.642 2.023-4.928 4.375-6.964 6.99-.152.196-.236.406-.368.612-10.405 13.873-10.32 33.1.25 46.898l.239.424c7.401 9.661 18.639 15.451 30.822 15.451 6.686 0 13.285-1.985 19.085-5.272.565-.32 1.08-.729 1.544-1.194 1.025-.644 63.465-48.453 63.465-48.453 10.301-7.892 15.942-20.333 15.127-33.331l.008-23.296c.001-.039.046-69.453.046-69.453zM46.793 246.4c-2.469.892-5.089 1.354-7.733 1.354h-.001c-7.164 0-13.768-3.256-18.099-8.91l-.228-.3a22.81 22.81 0 0 1-1.989-24.664c15.737 1.468 28.097 14.75 28.097 30.865a31.68 31.68 0 0 1-.047 1.655zM66.506 67.253v-19h12v19h-12zm28-19h13v19h-13v-19zm40 0v19h-11v-19h11zm-21.094 148.383l-12.845 9.855c-2.432-4.492-3.728-9.548-3.728-14.745 0-15.198 10.992-27.876 25.444-30.501l-.009 15.014c0 .188.007.377.02.565.543 7.729-2.777 15.134-8.882 19.812zM288.839 32.253h-84c-4.418 0-8.333 3.582-8.333 8v35c0 4.418 3.915 8 8.333 8h4.667v73.397l-48.433 37.227c-2.642 2.023-4.928 4.375-6.964 6.99-.152.196-.236.406-.368.612-10.405 13.873-10.32 33.1.25 46.898l.239.424c7.401 9.661 18.639 15.451 30.822 15.451 6.686 0 13.285-1.985 19.085-5.272.565-.32 1.08-.729 1.544-1.194 1.025-.644 2.026-1.313 2.962-2.029l60.503-46.424c10.301-7.892 15.941-20.333 15.127-33.331l.053-92.749h4.512c4.418 0 7.667-3.582 7.667-8v-35c0-4.418-3.248-8-7.666-8zm-8.334 16v19h-11v-19h11zM192.793 246.4c-2.469.892-5.089 1.354-7.733 1.354h-.001c-7.164 0-13.768-3.256-18.099-8.91l-.229-.3a22.81 22.81 0 0 1-1.989-24.664c15.737 1.468 28.097 14.75 28.097 30.865 0 .549-.016 1.101-.046 1.655zm19.713-179.147v-19h12v19h-12zm41 0h-13v-19h13v19zm5.906 129.383l-12.845 9.855c-2.432-4.492-3.729-9.548-3.729-14.745 0-15.198 10.992-27.876 25.444-30.501l-.009 15.014c0 .188.007.377.02.565.544 7.729-2.776 15.134-8.881 19.812z"/></svg>
