<svg xmlns="http://www.w3.org/2000/svg" viewBox="0 0 297 297" fill="#fff" xmlns:v="https://vecta.io/nano"><path d="M106.669 71.205H75.15L1.745 173.973c-2.018 2.824-2.308 6.531-.756 9.635.68 1.359 16.712 32.188 75.425 49.123l30.255-161.526zm113.036-13.117V40.287a9.37 9.37 0 0 0-9.369-9.369H86.664a9.37 9.37 0 0 0-9.369 9.369v17.801h142.41zm-42.719 13.117h-56.973L86.739 248.848c9.498 7.197 28.674 17.234 61.761 17.234s52.263-10.037 61.761-17.234L176.986 71.205zm118.269 102.768L221.85 71.205h-31.518l30.255 161.525c58.713-16.936 74.744-47.764 75.425-49.123a9.37 9.37 0 0 0-.757-9.634z"/></svg>