<svg xmlns="http://www.w3.org/2000/svg" viewBox="0 0 271.953 271.953" fill="#ccc"><path d="M255.636 203.285c4.977 0 9.584 1.387 13.598 3.639V67.988c0-34.489-28.06-62.549-62.549-62.549h-21.756c-20.467 0-38.612 9.926-50.029 25.167 17.226 13.973 28.272 35.283 28.272 59.139v113.54h92.464zm-55.75-91.447c0-15.936 12.961-28.892 28.892-28.892s28.892 12.961 28.892 28.892v49.631a8.16 8.16 0 0 1-8.159 8.159 8.16 8.16 0 0 1-8.159-8.159v-49.631c0-6.935-5.646-12.575-12.575-12.575s-12.575 5.64-12.575 12.575v49.631a8.16 8.16 0 0 1-8.159 8.159 8.16 8.16 0 0 1-8.159-8.159v-49.631zm55.75 102.325h-92.464v16.997 10.878h-1.817c.348.887.631 1.795.881 2.72h93.4c9.013 0 16.317-6.848 16.317-15.295 0-8.452-7.304-15.3-16.317-15.3zM129.118 39.901l-2.203-1.741-2.197-1.643c-10.65-7.56-23.638-12.042-37.693-12.042H65.269C29.224 24.476 0 53.7 0 89.745V230.41c4.558-3.323 10.171-5.368 16.317-5.368h92.926 5.499 5.689 15.545c6.146 0 11.759 2.045 16.317 5.368v-16.246-4.759-.68-5.439V89.745c.001-20-9.012-37.867-23.175-49.844zm-57.73 143.33a8.16 8.16 0 0 1-8.159 8.159 8.16 8.16 0 0 1-8.159-8.159V133.6c0-6.935-5.646-12.575-12.575-12.575s-12.581 5.635-12.581 12.57v49.631a8.16 8.16 0 0 1-8.159 8.159 8.16 8.16 0 0 1-8.159-8.159v-49.631c0-15.936 12.961-28.892 28.892-28.892s28.892 12.961 28.892 28.892v49.637h.008zm79.334 61.527c-.484-.968-1.082-1.871-1.762-2.72-2.089-2.589-5.015-4.504-8.425-5.439-1.458-.397-2.964-.68-4.558-.68h-14.745-5.825-5.689-93.4c-1.594 0-3.1.283-4.558.68-3.405.936-6.337 2.85-8.425 5.439C1.273 244.6 0 247.755 0 251.219c0 8.447 7.305 15.295 16.317 15.295h119.659c7.359 0 13.511-4.601 15.545-10.878.451-1.409.772-2.872.772-4.417 0-.348-.087-.674-.109-1.023-.14-1.935-.63-3.768-1.462-5.438z"/></svg>
