<svg xmlns="http://www.w3.org/2000/svg" width="512px" height="512px" fill="#fff" shape-rendering="geometricPrecision" image-rendering="optimizeQuality" fill-rule="evenodd"><path d="M71.5 29.5l162 .5c4.031 4.743 6.531 10.243 7.5 16.5a72.41 72.41 0 0 1 8 14c1.26 5.114 2.927 10.114 5 15 3.295 5.463 6.795 10.796 10.5 16 9.399 19.859 20.566 38.526 33.5 56 2.031 6.703 5.698 12.37 11 17 .774 3.95 2.941 6.95 6.5 9a222.22 222.22 0 0 0 16.5 26c3.063 4.157 6.396 8.157 10 12l1 4a21.53 21.53 0 0 1 6 5c5.114 6.671 9.78 13.671 14 21 3.529 2.052 5.862 5.052 7 9a300.15 300.15 0 0 1 12 14l1 4c3.867 1.86 6.2 4.86 7 9l8 12a61.46 61.46 0 0 0 4 13c1.637 11.202.304 21.869-4 32-3.39 2.132-5.723 5.132-7 9-4.543 3.842-8.709 8.009-12.5 12.5a41.8 41.8 0 0 0-10 5 13.92 13.92 0 0 1-3 4c-8.077 2.11-15.744 5.11-23 9-9.124 2.012-18.457 3.012-28 3-12.524 3.288-24.857 7.622-37 13-4.206 2.983-8.206 6.316-12 10-3.833-.167-5.667 1.667-5.5 5.5a21.53 21.53 0 0 1-6 5c-3.314 5.635-6.981 10.968-11 16-1.757 7.478-3.757 14.812-6 22-.5 8.66-.666 17.327-.5 26h-165v-445zm79 240a211.9 211.9 0 0 0 18.5 6c.667 2 .667 4 0 6-.414.457-.914.791-1.5 1l-6.5 27c-1.155 11.552-.488 22.885 2 34a59.48 59.48 0 0 1 9 13c1.762 2.768 4.262 4.268 7.5 4.5 1.86 3.867 4.86 6.2 9 7 4.63 5.302 10.297 8.969 17 11a50.4 50.4 0 0 0 8 6c8.497 4.272 17.164 8.272 26 12l2.5 2.5c.074 5.032-1.926 9.032-6 12-.273 1.601-.773 3.101-1.5 4.5a16.24 16.24 0 0 1-8 0l-43-23-20-15c-4.189-5.187-8.689-10.02-13.5-14.5l-9-20-2.5-20.5a505.5 505.5 0 0 1 4.5-34.5c3.177-5.978 5.677-12.311 7.5-19zm142 58c6.675-.166 13.342 0 20 .5 3.476 1.254 7.142 1.921 11 2 2.705 2.105 5.705 3.772 9 5l4.5 4.5c.309 3.443 1.476 6.443 3.5 9-2.163 6.698-5.496 12.865-10 18.5-3.793 1.052-5.793-.448-6-4.5a45.41 45.41 0 0 1-8-8c-6.394-2.111-12.894-3.777-19.5-5-4.631 1.519-9.464 2.352-14.5 2.5a343.88 343.88 0 0 0-18 9 48.77 48.77 0 0 1-8.5 8.5 100.9 100.9 0 0 0-4 9c-.2 4.253-.7 8.42-1.5 12.5-6.346-.569-12.512-2.069-18.5-4.5-1.626-2.628-3.626-4.961-6-7-.309-3.443-1.476-6.443-3.5-9 2.843-7.382 6.843-14.216 12-20.5 3.059-.058 5.392-1.391 7-4 3.444-.111 5.777-1.777 7-5a128.52 128.52 0 0 1 30-9.5c.209-.586.543-1.086 1-1.5l12-1c.556-.383.889-.883 1-1.5z" opacity=".992"/></svg>
