<svg xmlns="http://www.w3.org/2000/svg" viewBox="0 0 503.607 503.607" fill="#fff"><circle cx="251.81" cy="285.38" r="8.393"/><path d="M494.478 332.129L377.071 70.773c1.679-14.756-5.943-28.89-19.389-35.605L289.225.932c-.436-.227-.915-.369-1.385-.52-.168-.05-.327-.117-.495-.168-.386-.092-.781-.126-1.184-.159-.168-.017-.319-.042-.478-.042-.109-.009-.201-.043-.302-.043h-67.148c-.109 0-.201.034-.302.042-.168 0-.319.034-.478.042-.403.034-.806.076-1.192.168-.168.034-.319.109-.478.159-.487.143-.974.294-1.427.537l-68.423 34.22c-13.455 6.715-21.076 20.849-19.397 35.605L25.276 296.196l-.017.008-16.123 35.925c-.923 2.04-.982 4.356-.185 6.446a8.45 8.45 0 0 0 4.44 4.675l38.392 16.955c1.058.47 2.157.671 3.257.688.042 0 .084.025.126.025.839 0 1.662-.159 2.459-.403.235-.067.453-.185.688-.285.63-.252 1.217-.579 1.771-.982.218-.168.436-.319.646-.504.688-.613 1.318-1.309 1.788-2.157l19.439-35.177 67.987-122.989c6.967 20.975 15.696 42.588 24.744 61.448-4.197 4.499-6.815 10.492-6.815 17.114v16.787c0 6.446 2.501 12.263 6.497 16.72l-13.194 21.387c-23.074 36.352-35.269 78.319-35.269 121.369v41.967c0 4.642 3.752 8.393 8.394 8.393h109.115V318.951h16.787v184.656h109.115c4.633 0 8.393-3.752 8.393-8.393v-41.967c0-43.05-12.204-85.017-35.278-121.369-.008-.008-.017-.025-.017-.034l-13.472-20.984c4.18-4.499 6.799-10.475 6.799-17.089v-16.787c0-6.782-2.728-12.917-7.101-17.45 9.644-19.464 18.046-39.911 25.038-61.079l68.608 124.114 18.801 34.019a8.4 8.4 0 0 0 7.353 4.331c1.133 0 2.283-.227 3.391-.713l38.383-16.955a8.45 8.45 0 0 0 4.44-4.675 8.42 8.42 0 0 0-.178-6.447zM51.54 341.747l-23.636-10.441 9.308-20.715 25.55 10.853-11.222 20.303zM286.85 25.743L305.357 53.5l-22.016 5.506c-2.938.73-5.246 2.988-6.052 5.909-.806 2.904.017 6.027 2.157 8.167L291.365 85 260.2 131.752v-22.637-16.787-6.606l26.65-59.979zm-14.387-8.956L251.807 63.27l-20.665-46.483h41.321zm-55.749 9.006l26.7 60.693v5.842 3.206l-27.799-13.9 8.553-8.553c2.14-2.14 2.963-5.263 2.149-8.167-.806-2.921-3.114-5.179-6.052-5.909L198.248 53.5l18.466-27.707zm9.915 427.453h-.002a8.39 8.39 0 0 1-8.393 8.393h-50.361c-4.642 0-8.393-3.752-8.393-8.393v-50.361a8.39 8.39 0 0 1 3.483-6.807c2.191-1.586 5.003-2.031 7.563-1.15l22.528 7.504 22.52-7.504c2.552-.881 5.372-.436 7.563 1.15 2.191 1.578 3.492 4.113 3.492 6.807v50.361zm25.178-151.083h0l-58.754.001c-.923 0-1.771-.252-2.602-.529-.361-.126-.722-.235-1.091-.42-2.761-1.377-4.7-4.155-4.7-7.445v-16.787c0-3.257 1.914-6.01 4.633-7.395.386-.201.764-.336 1.15-.47.831-.277 1.687-.529 2.61-.529h117.508c.923 0 1.771.252 2.602.529.361.134.73.235 1.091.42 2.753 1.385 4.7 4.163 4.7 7.445v16.787c0 3.366-2.023 6.228-4.877 7.562-1.175.554-2.359.831-3.517.831h-58.753zm81.274 92.765c2.552-.881 5.372-.436 7.563 1.15 2.191 1.578 3.492 4.113 3.492 6.807v50.361a8.39 8.39 0 0 1-8.393 8.393h-50.361c-4.642 0-8.393-3.752-8.393-8.393v-50.361a8.39 8.39 0 0 1 3.483-6.807c2.191-1.586 5.003-2.031 7.563-1.15l22.528 7.504 22.518-7.504zm118.985-53.181l-10.584-19.145 25.449-10.811 8.771 19.515-23.636 10.441zm-138.85 77.493c-1.729.571-3.584.571-5.313 0l-14.135-4.709v30.326h33.574v-30.326l-14.126 4.709zm-117.508 0c-1.729.571-3.584.571-5.313 0l-14.135-4.709v30.326h33.574v-30.326l-14.126 4.709z"/></svg>
