<svg xmlns="http://www.w3.org/2000/svg" fill="#ccc" viewBox="0 0 478.07 478.07"><path d="M171.152 266.787v-34.211c0-13.287-10.773-24.053-24.045-24.053h-1.109v24.338c0 17.433-14.134 31.567-31.567 31.567s-31.566-14.134-31.566-31.567v-24.338h-1.11c-13.271 0-24.046 10.766-24.046 24.053v34.211C23.291 286.54 0 323.585 0 366.035c0 54.981 38.98 100.997 90.756 111.934v-49.385c-25.295-9.61-43.404-33.925-43.404-62.548 0-36.985 30.086-67.08 67.079-67.08s67.08 30.095 67.08 67.08c0 28.624-18.111 52.938-43.404 62.548v49.385c51.773-10.936 90.755-56.953 90.755-111.934-.001-42.45-23.291-79.495-57.71-99.248zm281.176-43.435c-6.521-8.008-14.027-14.898-22.197-20.755l3.454-33.971c1.34-13.217-8.277-25.025-21.486-26.365l-1.111-.117-2.466 24.215c-1.649 16.254-15.366 28.37-31.366 28.37-1.063 0-2.144-.054-3.237-.163-17.339-1.765-29.963-17.263-28.19-34.604l2.466-24.222-1.095-.109a24.08 24.08 0 0 0-17.648 5.288c-4.933 4.031-8.077 9.865-8.724 16.208l-3.454 33.872c-36.483 16.137-63.18 50.834-67.48 93.044-3.097 30.41 5.827 60.212 25.14 83.904 14.212 17.449 32.832 29.995 53.81 36.66l4.994-49.068c-8.416-4.193-16-10.011-22.103-17.51-11.314-13.888-16.554-31.35-14.735-49.185 3.499-34.365 32.139-60.284 66.601-60.284 2.298 0 4.595.117 6.921.355 17.834 1.818 33.895 10.466 45.209 24.354s16.554 31.35 14.735 49.185c-2.898 28.423-23.244 50.879-49.523 57.854l-4.994 49.099c53.33-5.571 96.072-47.597 101.622-102.152 3.093-30.411-5.83-60.214-25.143-83.903zM82.864 180.209c3.483 3.567 7.659 6.451 12.438 8.338l7.291 2.882v41.432a11.84 11.84 0 0 0 11.837 11.837c6.534 0 11.838-5.302 11.838-11.837V197.11c4.237-.232 8.384-1.056 12.3-2.753 2.712-1.171 5.148-2.735 7.43-4.476 5.147-3.916 9.232-9.087 11.667-15.268l11.669-29.517c5.271-13.364 1.85-27.977-7.414-37.788l24.339-21.016c2.589 2.682 5.471 5.078 8.784 6.844 5.195 2.759 11.037 4.222 16.894 4.222a35.81 35.81 0 0 0 10.45-1.557l30.365-9.239a35.68 35.68 0 0 0 21.225-17.433c2.051-3.838 3.252-7.953 3.823-12.147l33.925 6.544c-.185 1.078-.478 2.127-.555 3.237-.693 9.547 2.373 18.804 8.631 26.079l20.763 24.006c2.528 2.928 5.579 5.218 8.832 7.16 5.502 3.299 11.761 5.264 18.326 5.264.323 0 .633-.077.972-.085l-3.346 32.77a11.84 11.84 0 0 0 10.575 12.979c.415.038.816.062 1.217.062 5.996 0 11.145-4.54 11.761-10.635l4.67-45.887 10.466-9.039c5.919-5.117 9.681-11.784 11.346-18.874 2.559-10.835.169-22.689-7.646-31.746L387.005 34.81c-6.164-7.167-15.12-11.667-24.538-12.354-9.664-.663-18.895 2.427-26.095 8.632l-12.377 10.69L273.7 32.09l-2.004-6.582c-2.789-9.171-8.986-16.7-17.447-21.216-8.324-4.44-18.374-5.395-27.314-2.668l-30.395 9.233c-9.156 2.781-16.693 8.977-21.209 17.433-4.518 8.438-5.473 18.149-2.682 27.344l2.682 8.809-35.313 30.497-6.69-2.65c-18.064-7.114-39.443 2.204-46.564 20.19l-11.651 29.502c-3.516 8.902-3.36 18.65.446 27.475 1.771 4.077 4.284 7.662 7.305 10.752zM360.555 46.071h.17c3.206.232 6.242 1.758 8.354 4.2l11.159 12.91 9.587 11.105c2.868 3.323 3.406 7.715 2.173 11.623-1.802-1.681-4.023-2.953-6.673-3.221-6.567-.617-12.316 4.069-12.978 10.573l-1.188 11.699c-4.47 1.217-9.603 0-12.685-3.592l-6.058-7.013-14.69-16.978c-2.142-2.481-3.174-5.641-2.943-8.9.016-.171.107-.317.139-.486l10.696 2.066c.756.146 1.511.215 2.251.215a11.84 11.84 0 0 0 11.607-9.595c1-5.217-1.681-10.149-6.135-12.531 1.958-1.241 4.208-2.075 7.214-2.075zm-164.356-6.619c1.525-2.844 4.162-5.01 7.229-5.942l30.396-9.232c1.141-.347 2.344-.524 3.545-.524a12.31 12.31 0 0 1 5.75 1.433c1.064.562 1.896 1.403 2.728 2.227-5.04.539-9.388 4.13-10.39 9.356a11.84 11.84 0 0 0 9.389 13.864l9.525 1.834c-.032 1.903-.371 3.783-1.295 5.51-1.525 2.882-4.1 4.986-7.229 5.942l-30.365 9.24c-3.005.933-6.458.601-9.309-.925-.725-.377-1.233-1.008-1.866-1.524l8.616-7.437a11.85 11.85 0 0 0 1.219-16.701 11.83 11.83 0 0 0-16.694-1.227l-2.28 1.973c-.494-2.689-.264-5.432 1.031-7.867zM97.121 150.676l6.488-16.408 5.164-13.086c1.695-4.261 5.564-7.036 10.034-7.528-3.868 4.369-4.177 10.935-.262 15.474a11.8 11.8 0 0 0 8.956 4.101 11.82 11.82 0 0 0 7.736-2.875l8.71-7.522c3.745 3.307 5.317 8.662 3.376 13.572l-5.058 12.801-6.611 16.708c-1.203 3.037-3.516 5.427-6.489 6.713-.925.401-1.911.462-2.897.624v-9.44c0-6.536-5.304-11.838-11.838-11.838s-11.837 5.302-11.837 11.838v1.818c-2.297-1.302-4.269-3.166-5.318-5.579a12.27 12.27 0 0 1-.154-9.373z"/></svg>
