<svg xmlns="http://www.w3.org/2000/svg" viewBox="0 0 512.005 512.005" fill="#fff"><path d="M340.917 31.51c-.009-.017-.009-.043-.017-.068l-8.533-25.6c-1.485-4.471-6.315-6.904-10.795-5.393-24.286 8.09-49.135 8.09-65.57 8.09s-41.284 0-65.562-8.09c-4.497-1.51-9.31.922-10.803 5.393l-8.533 25.6c-.009.026 0 .051-.009.068-9.907 22.332-17.015 116.386 8.653 184.832 13.491 35.959 11.401 63.189 9.37 89.515-.708 9.242-1.382 17.98-1.382 26.948 0 34.415 16.853 127.787 25.771 172.339.794 3.985 4.301 6.861 8.363 6.861h25.6V68.476c4.13.068 7.168-.077 8.533-.179 1.135.085 3.362.196 6.443.196l2.091-.026v443.537h25.6c4.07 0 7.569-2.876 8.371-6.861 8.909-44.553 25.762-137.924 25.762-172.339 0-8.969-.666-17.707-1.382-26.948-2.022-26.325-4.113-53.555 9.378-89.515 25.657-68.445 18.549-162.5 8.651-184.831zm-21.061 2.509c-.461.35-.904.725-1.374 1.058-2.347 1.69-4.762 3.191-7.211 4.548-.597.333-1.195.64-1.792.947-2.236 1.161-4.497 2.227-6.758 3.157-.333.137-.666.299-.998.427-2.534 1.007-5.06 1.852-7.561 2.594-.606.188-1.212.358-1.809.529a110.1 110.1 0 0 1-14.455 2.987l-1.254.171c-2.219.282-4.361.503-6.306.648h-.06a115.71 115.71 0 0 1-5.649.273c-4.753.111-7.757-.111-7.868-.119a7.3 7.3 0 0 0-.759-.034 7.3 7.3 0 0 0-.759.034c-.111.009-3.294.239-8.311.102-1.408-.034-2.961-.111-4.642-.222-.273-.026-.512-.034-.794-.051-1.86-.137-3.891-.35-5.999-.614l-1.519-.205c-2.185-.307-4.454-.666-6.827-1.143-.068-.017-.137-.026-.205-.043-2.364-.478-4.83-1.101-7.305-1.792l-1.775-.512c-2.517-.76-5.069-1.604-7.62-2.611-.29-.12-.589-.265-.879-.384-2.321-.947-4.625-2.039-6.912-3.226l-1.69-.887c-2.466-1.374-4.898-2.884-7.262-4.582-.452-.324-.879-.691-1.331-1.033-1.058-.794-2.039-1.749-3.063-2.62l4.105-12.322c24.03 6.511 47.027 6.511 62.788 6.511s38.767 0 62.797-6.511l4.105 12.322c-1.017.87-1.998 1.809-3.048 2.603z"/></svg>
