<svg xmlns="http://www.w3.org/2000/svg" fill="#ccc" baseProfile="tiny" viewBox="-351 153 256 256"><path d="M-139.1 345.7c-6.5-5.9-14.1-8.6-23-8.3-3 0-5.9.7-8.9 1.7l-44.6-40.8 28.7-33.9 45.6 40.2 40.3-45.9-114.1-100.4-40.3 45.9 44.4 39.1-29.7 32.1-40.6-37.2c.7-3 1-5.9.7-8.9-.3-8.9-3.8-16.5-10.3-22.3-6.5-5.9-14.1-8.6-23-8.3-3 0-6.2.7-8.9 1.7l25.8 23.4-22.8 25-25.8-23.4c-.7 3-1 6.2-.7 8.9.3 8.9 3.8 16.1 10.3 22s14.1 8.6 23 8.3c3 0 6.5-.7 9.6-2.1l39.4 36.1-65.2 67.6c-4.5 3.8-6.8 9.2-6.8 15.1a19.89 19.89 0 0 0 19.9 19.9c6.8 0 12.7-3.5 16.5-8.6l62.8-69.2 37.1 33.9 6.2 5.9c-.7 3-1 6.5-1 9.6.3 8.9 3.8 16.1 10.3 22.3 6.5 5.9 14.1 8.6 23 8.3 3 0 5.9-.7 8.9-1.7l-25.8-23.4 23-25.1 25.5 23.5c.7-3 1-6.2.7-8.9-.2-9.1-3.7-16.3-10.2-22.1z"/></svg>
