<svg xmlns="http://www.w3.org/2000/svg" fill="#fff" viewBox="0 0 612 612"><path d="M598.551 135.131l-70.8-88.827a35.25 35.25 0 0 0-27.564-13.279H160.682a35.25 35.25 0 0 0-27.563 13.278l-70.802 88.828c-7.397 9.28-13.449 26.583-13.449 38.449v64.615c15.441-12.739 35.22-20.402 56.755-20.402h31.626c49.25 0 89.318 40.068 89.318 89.318v52.221c24.363 6.549 42.736 30.018 42.736 55.248v109.621h298.635c24.334 0 44.061-19.729 44.061-44.061L612 173.58c0-11.867-6.052-29.169-13.449-38.449zm-513.097-.752l23.447-29.417h159.975l15.786-25.956H129.589L146.9 57.29a17.53 17.53 0 0 1 13.782-6.639h339.504a17.53 17.53 0 0 1 13.782 6.639l17.31 21.718H373.444l8.812 25.956h169.711l23.446 29.417H85.454zm132.477 250.064c-5.918-1.041-11.859-1.885-17.801-2.732v-74.6c0-34.676-28.208-62.884-62.884-62.884h-31.622c-34.677 0-62.884 28.208-62.884 62.884v74.6l-17.803 2.734C11.116 387.021.002 400.861 0 414.576v125.838c.001 13.719 11.117 27.562 24.936 30.133a556.71 556.71 0 0 0 192.995 0c13.821-2.576 24.932-16.416 24.936-30.133V414.576c-.001-13.715-11.119-27.56-24.936-30.133zM84.662 307.111c0-11.561 9.4-20.961 20.962-20.961h31.623c11.561 0 20.961 9.4 20.961 20.961v70.254c-24.493-1.621-49.053-1.623-73.545-.002l-.001-70.252h0zm52.93 207.25h-32.317l8.69-35.195c-7.343-2.963-12.536-10.129-12.536-18.531a20.01 20.01 0 0 1 20.004-20.006 20.01 20.01 0 0 1 20.005 20.006c0 8.402-5.194 15.568-12.537 18.531l8.691 35.195z"/></svg>
