<svg xmlns="http://www.w3.org/2000/svg" viewBox="0 0 512 512" fill="#ccc"><path d="M241.251 145.056c-39.203-17.423-91.472 17.423-104.54 60.982s8.712 117.608 65.337 143.742 108.896-8.712 87.117-39.202c-74.049-8.712-121.963-87.117-100.184-126.319s91.472-21.78 52.27-39.203zm95.828 126.319c47.914-39.202 21.779-126.319-17.423-135.031s-56.626 13.068-26.135 39.202c39.203 30.491-8.712 91.472-39.202 87.117-.001 0 34.846 47.914 82.76 8.712zm-82.761-151.587c43.558-17.423 74.049-9.579 100.184 16.556 13.068-39.202-30.491-104.54-108.896-113.252S93.153 118.921 127.999 171.191c8.712-17.424 60.982-64.47 126.319-51.403zM110.576 245.24c-74.049 17.423-81.706 90.008-65.337 135.03 17.423 47.914 4.356 82.761 26.135 91.472 20.622 8.253 91.472 13.068 152.454 17.423s108.896-47.914 91.472-108.896c-174.233 30.492-204.724-95.827-204.724-135.029zm-16.693-9.444s2.178-28.313 10.89-43.558c-4.356-4.356-8.712-21.779-8.712-21.779s-4.356-19.601-4.356-34.846C59.036 129.079 2.41 170.459.233 176.993s10.889 80.583 39.202 82.761c30.492-23.958 54.448-23.958 54.448-23.958zm395.65-60.25c-39.202-82.761-113.252-65.337-113.252-65.337s4.356 21.779-4.356 34.846c43.558 47.914 13.067 146.643-24.681 158.265 130.675 56.626 159.712-58.081 164.068-75.504s-13.067-30.49-21.779-52.27zm-35.425 156.53c-22.359 15.841-85.663 11.613-121.964-7.265 1.446 14.514-13.067 37.756-20.325 39.202 27.59 11.621 53.725 62.436 7.265 116.161 18.878 18.87 95.828 4.356 140.842-24.689 7.325-4.722 18.869-52.27 21.779-79.851 3.855-36.531 7.258-68.247-27.597-43.558zM257.227 213.294c-18.928 5.164-30.439-6.27-23.234-18.869 5.811-10.167 5.266-20.69-8.712-13.068-29.044 17.423-11.612 66.784 24.689 62.428 49.36-17.423 27.581-62.428 14.514-60.982s8.712 26.135-7.257 30.491z"/></svg>
