<svg xmlns="http://www.w3.org/2000/svg" viewBox="0 0 512.001 512.001" fill="#ccc"><path d="M145.081 218.769c11.614 10.445 25.515 11.708 31.582 11.708 1.135 0 1.997-.043 2.509-.077 23.339-.137 65.963-13.286 76.646-16.7 10.675 3.413 53.299 16.563 76.638 16.7.521.034 1.374.077 2.509.077 6.067 0 19.968-1.263 31.582-11.708 11.588-10.419 17.459-26.607 17.459-48.102 0-47.957-18.142-72.363-25.6-80.367V8.533c0-4.71-3.814-8.533-8.533-8.533s-8.533 3.823-8.533 8.533v80.205c-21.094 12.527-66.739 57.242-85.521 91.247-18.671-33.783-63.872-78.182-85.146-91.025V8.533c0-4.71-3.814-8.533-8.533-8.533s-8.533 3.823-8.533 8.533v81.365c-7.168 7.526-25.984 31.889-25.984 80.768-.001 21.496 5.879 37.684 17.458 48.103zm244.416 133.096c-1.929-1.613-4.429-2.313-6.955-1.877-65.408 11.401-106.803 16.947-126.541 16.947-19.729 0-61.124-5.547-126.532-16.947a8.53 8.53 0 0 0-6.955 1.877c-1.929 1.621-3.046 4.011-3.046 6.537v34.133a8.54 8.54 0 0 0 8.533 8.533c71.202 0 102.434 103.74 102.741 104.789a8.55 8.55 0 0 0 8.192 6.144h34.133c3.797 0 7.125-2.509 8.192-6.144.316-1.05 31.548-104.789 102.741-104.789 4.719 0 8.533-3.823 8.533-8.533v-34.133a8.52 8.52 0 0 0-3.036-6.537z"/></svg>
