<svg xmlns="http://www.w3.org/2000/svg" fill="#fff" viewBox="0 0 512.003 512.003"><path d="M90.391 325.411H240.83v78.122H90.391zm90.391-108.466h150.439v78.122H180.782zM90.391 108.47H240.83v78.122H90.391zm180.782 216.941h150.439v78.122H271.173zM0 433.876h150.439v78.122H0zM271.173 108.47h150.439v78.122H271.173zM361.564.005h150.439v78.122H361.564zm-180.782 0h150.439v78.122H180.782zm271.173 325.406h60.048v78.122h-60.048z"/><path d="M451.955 108.47h60.048v78.122h-60.048zM180.782 433.876h150.439v78.122H180.782zm180.782 0h150.439v78.122H361.564zM0 .005h150.439v78.122H0zm361.564 216.94h150.439v78.122H361.564zM0 325.411h60.048v78.122H0zm0-108.466h150.439v78.122H0zM0 108.47h60.048v78.122H0z"/></svg>
